<?xml version="1.0" standalone="no"?>
<!DOCTYPE svg PUBLIC "-//W3C//DTD SVG 20010904//EN"
 "http://www.w3.org/TR/2001/REC-SVG-20010904/DTD/svg10.dtd">
<svg version="1.0" xmlns="http://www.w3.org/2000/svg"
 width="512.000000pt" height="512.000000pt" viewBox="0 0 512.000000 512.000000"
 preserveAspectRatio="xMidYMid meet">
<metadata>
Created by potrace 1.14, written by Peter Selinger 2001-2017
</metadata>
<g transform="translate(0.000000,512.000000) scale(0.100000,-0.100000)"
fill="#000000" stroke="none">
<path d="M790 5019 c-14 -5 -36 -20 -48 -32 -44 -40 -52 -70 -52 -182 l0 -105
-143 0 c-164 0 -236 -14 -309 -62 -56 -35 -100 -88 -130 -155 l-22 -48 3
-1689 c3 -1843 -1 -1735 61 -1828 35 -53 80 -90 148 -121 46 -21 59 -22 492
-25 l445 -3 40 -56 c90 -125 280 -295 437 -391 156 -95 347 -171 521 -207 455
-92 929 14 1300 291 100 75 254 226 312 307 l40 56 445 3 c433 3 446 4 492 25
68 31 113 68 148 121 62 93 58 -15 61 1828 l3 1689 -27 58 c-35 76 -110 149
-184 178 -50 19 -82 23 -225 27 l-168 4 0 108 c0 117 -12 149 -73 194 -44 33
-142 30 -189 -6 -55 -42 -68 -80 -68 -197 l0 -101 -260 0 -260 0 0 100 c0 115
-17 162 -72 202 -45 32 -143 33 -185 2 -61 -46 -73 -77 -73 -195 l0 -109 -259
0 -259 0 -3 108 c-4 89 -8 113 -26 142 -64 104 -222 104 -286 0 -18 -29 -22
-53 -26 -142 l-3 -108 -259 0 -259 0 0 109 c0 118 -12 149 -73 195 -44 33
-142 30 -189 -6 -55 -42 -68 -80 -68 -197 l0 -101 -260 0 -260 0 0 100 c0 115
-17 162 -71 201 -36 26 -119 35 -159 18z m1938 -2055 c314 -64 553 -286 648
-601 23 -76 27 -107 28 -223 0 -144 -12 -213 -61 -333 -92 -227 -300 -414
-540 -487 l-71 -21 -4 -70 c-3 -55 -8 -74 -26 -92 -21 -20 -32 -22 -142 -22
-166 0 -164 -2 -168 189 -4 154 5 206 40 251 30 38 93 65 155 65 63 0 182 37
241 74 158 100 244 254 244 441 1 242 -155 438 -397 500 -162 41 -352 -12
-473 -133 -97 -97 -144 -201 -157 -345 -12 -123 -69 -187 -170 -187 -66 0
-111 29 -143 90 -21 40 -23 54 -18 131 24 375 301 694 671 772 93 20 248 21
343 1z m-92 -2220 c103 -49 120 -180 35 -265 -63 -63 -153 -65 -220 -3 -87 78
-71 217 31 267 42 21 111 21 154 1z"/>
</g>
</svg>
